Coordinates
version=1
nRows=6
nColumns=63
inDegrees=yes

Units are S.I. units (second, meters, Newtons, ...)
If the header above contains a line with 'inDegrees', this indicates whether rotational values are in degrees (yes) or radians (no).

endheader
time	pelvis_tilt	pelvis_list	pelvis_rotation	pelvis_tx	pelvis_ty	pelvis_tz	hip_flexion_r	hip_adduction_r	hip_rotation_r	knee_angle_r	knee_angle_r_beta	ankle_angle_r	subtalar_angle_r	mtp_angle_r	hip_flexion_l	hip_adduction_l	hip_rotation_l	knee_angle_l	knee_angle_l_beta	ankle_angle_l	subtalar_angle_l	mtp_angle_l	L5_S1_Flex_Ext	L5_S1_Lat_Bending	L5_S1_axial_rotation	L4_L5_Flex_Ext	L4_L5_Lat_Bending	L4_L5_axial_rotation	L3_L4_Flex_Ext	L3_L4_Lat_Bending	L3_L4_axial_rotation	L2_L3_Flex_Ext	L2_L3_Lat_Bending	L2_L3_axial_rotation	L1_L2_Flex_Ext	L1_L2_Lat_Bending	L1_L2_axial_rotation	L1_T12_Flex_Ext	L1_T12_Lat_Bending	L1_T12_axial_rotation	Abs_r3	Abs_r2	Abs_r1	Abs_t1	Abs_t2	neck_flexion	neck_bending	neck_rotation	arm_flex_r	arm_add_r	arm_rot_r	elbow_flex_r	pro_sup_r	wrist_flex_r	wrist_dev_r	arm_flex_l	arm_add_l	arm_rot_l	elbow_flex_l	pro_sup_l	wrist_flex_l	wrist_dev_l
      3.16666667	      0.87880187	     -2.56140036	     93.04311895	      0.39193231	      0.84923925	      0.56500317	      5.41722721	      2.89444684	     -7.79853077	     11.55000300	      0.20158558	     43.33984846	     16.64635952	      0.00000000	     12.14705730	     -7.47875209	     -3.64099522	     22.32530257	      0.38965004	     41.60020179	      3.73981472	      0.00000000	      0.08636623	      0.55971754	     -0.50030015	      0.16039072	      0.74442432	     -0.53156891	      0.14189108	      1.36089722	     -0.53156891	      0.09870796	      1.36089722	     -0.43776263	      0.08019968	      1.14137600	     -0.40649387	      0.04934966	      0.86700246	     -0.37522511	      0.61690534	      6.33163671	     -2.78251934	      0.00000000	      0.00000000	     26.15908003	     -1.15653965	      8.59405613	     13.98852644	    -15.00820967	     44.38376315	     31.44455457	     68.17179582	     -9.59693156	     -3.59358550	     10.76772586	     -6.44907967	     54.85425085	     37.58790203	     82.99497755	     -7.63071470	      1.33984168
      3.18333333	      0.93565109	     -2.87520134	     93.61138421	      0.39144155	      0.84893480	      0.56563416	      5.60607605	      2.92235288	     -8.34604613	     11.27195907	      0.19673280	     43.03077993	     16.26207368	      0.00000000	     12.56383849	     -7.40800505	     -3.10430308	     22.19883914	      0.38744283	     41.47942675	      3.86256324	      0.00000000	      0.11818048	      0.56720877	     -0.66753187	      0.21947297	      0.75438766	     -0.70925261	      0.19415871	      1.37911139	     -0.70925261	      0.13506847	      1.37911139	     -0.58409038	      0.10974239	      1.15665212	     -0.54236964	      0.06752833	      0.87860638	     -0.50064890	      0.84415134	      6.41637900	     -3.71261197	      0.00000000	      0.00000000	     26.48342087	     -1.21510972	      8.84301445	     14.89169775	    -14.82244607	     44.61512591	     32.30733921	     67.13029653	     -9.26846426	     -3.17225158	     10.79596200	     -6.49240694	     54.12499537	     38.97354136	     80.80323942	     -6.84900681	      1.36023101
      3.20000000	      1.06426388	     -3.11247552	     93.73987811	      0.39144979	      0.84894275	      0.56631645	      5.80748420	      3.04622853	     -8.59021990	     11.08108099	      0.19340135	     42.59981626	     16.15982407	      0.00000000	     12.76817471	     -7.48015894	     -2.90413572	     21.93335647	      0.38280929	     41.46180878	      3.87389654	      0.00000000	      0.13504473	      0.58423026	     -0.70969395	      0.25079156	      0.77702624	     -0.75404982	      0.22186498	      1.42049745	     -0.75404982	      0.15434262	      1.42049745	     -0.62098221	      0.12540253	      1.19136234	     -0.57662634	      0.07716456	      0.90497267	     -0.53227046	      0.96461099	      6.60892952	     -3.94710485	      0.00000000	      0.00000000	     26.66288570	     -1.34867190	      8.83092042	     15.59831234	    -14.75440218	     44.93306907	     33.12327000	     67.26530305	     -8.96866644	     -3.27511612	     11.08007973	     -6.63283258	     54.07303701	     40.68387117	     80.19193699	     -6.45636947	      0.96436128
      3.21666667	      1.44069694	     -3.31374020	     95.16003056	      0.38979068	      0.84893741	      0.56740782	      5.80236119	      3.35512082	     -9.80332065	     10.50792317	      0.18339786	     42.33044225	     15.94032522	      0.00000000	     13.53677810	     -7.40924005	     -0.74695769	     22.16970004	      0.38693426	     41.52262354	      2.99926710	      0.00000000	      0.15676851	      0.63393150	     -1.08202648	      0.29113480	      0.84312889	     -1.14965313	      0.25755498	      1.54134105	     -1.14965313	      0.17917073	      1.54134105	     -0.94677317	      0.14557524	      1.29271311	     -0.87914651	      0.08957753	      0.98195989	     -0.81151986	      1.11978179	      7.17115991	     -6.01790665	      0.00000000	      0.00000000	     26.78962430	     -1.24175236	      9.76125730	     16.82834561	    -14.64174884	     47.39030872	     33.51822579	     67.82017992	     -8.64659698	     -3.08160969	     11.52321212	     -7.20399499	     55.39611995	     42.91520014	     72.44207916	     -6.78202820	      0.27402862
      3.23333333	      1.55657927	     -3.42139696	     95.22546313	      0.39024264	      0.84930715	      0.56797056	      5.93334511	      3.50546597	     -9.93257271	     10.44280765	      0.18226138	     42.02209344	     15.91176176	      0.00000000	     13.64408940	     -7.51096908	     -0.55585418	     21.96657722	      0.38338910	     41.63707858	      3.03753225	      0.00000000	      0.16527880	      0.64193044	     -1.08068440	      0.30693926	      0.85376748	     -1.14822717	      0.27153654	      1.56078967	     -1.14822717	      0.18889714	      1.56078967	     -0.94559885	      0.15347789	      1.30902455	     -0.87805607	      0.09444031	      0.99435025	     -0.81051330	      1.18056993	      7.26164552	     -6.01044242	      0.00000000	      0.00000000	     26.81205415	     -1.40609646	      9.54350640	     16.84649456	    -14.58428346	     48.22957171	     34.43041942	     68.47009808	     -8.13959818	     -3.15233545	     11.72319227	     -7.72613591	     55.15757022	     45.28805021	     71.95055394	     -6.31401277	     -0.24612797
      3.25000000	      1.52161376	     -3.59298408	     95.79309002	      0.39007442	      0.84959771	      0.56862615	      6.10496009	      3.44770412	    -10.19769438	     10.42171948	      0.18189332	     41.88026180	     15.73057918	      0.00000000	     14.04266735	     -7.34103152	     -0.11518819	     22.02954211	      0.38448804	     41.69947457	      3.03184875	      0.00000000	      0.19116058	      0.62534003	     -1.31401204	      0.35500432	      0.83170223	     -1.39613779	      0.31405772	      1.52045174	     -1.39613779	      0.21847743	      1.52045174	     -1.14976053	      0.17751172	      1.27519338	     -1.06763478	      0.10922916	      0.96865170	     -0.98550903	      1.36544092	      7.07397144	     -7.30814076	      0.00000000	      0.00000000	     26.93388172	     -1.39871333	      9.23040470	     17.39313965	    -14.05069588	     50.89795173	     34.65097380	     71.14711138	     -6.67920528	     -2.44702640	     11.19574448	     -8.66675309	     53.59387546	     48.30145441	     68.25737688	     -5.70408377	     -0.24783493
